<?xml version="1.0" standalone="no"?>
<!DOCTYPE svg PUBLIC "-//W3C//DTD SVG 20010904//EN"
 "http://www.w3.org/TR/2001/REC-SVG-20010904/DTD/svg10.dtd">
<svg version="1.0" xmlns="http://www.w3.org/2000/svg"
 width="580.000000pt" height="580.000000pt" viewBox="0 0 580.000000 580.000000"
 preserveAspectRatio="xMidYMid meet">
<metadata>
Created by potrace 1.11, written by Peter Selinger 2001-2013
</metadata>
<g transform="translate(0.000000,580.000000) scale(0.100000,-0.100000)"
fill="#000000" stroke="none">
<path d="M2655 5793 c-455 -56 -696 -125 -1040 -293 -458 -224 -854 -576
-1141 -1010 -242 -367 -395 -781 -456 -1235 -14 -111 -18 -549 -5 -655 49
-402 142 -711 313 -1040 377 -725 1047 -1259 1844 -1469 87 -23 100 -26 240
-51 170 -30 184 -31 440 -35 277 -4 410 7 641 55 695 143 1325 548 1749 1125
280 382 456 811 531 1295 19 119 23 188 23 390 1 299 -5 367 -51 604 -77 395
-255 802 -498 1136 -21 30 -42 57 -45 60 -3 3 -32 39 -65 80 -86 107 -293 312
-415 410 -352 282 -811 499 -1222 579 -129 25 -151 29 -213 37 -27 3 -61 8
-75 11 -30 6 -513 12 -555 6z"/>
</g>
</svg>
